<?xml version="1.0" standalone="no"?>
<!DOCTYPE svg PUBLIC "-//W3C//DTD SVG 20010904//EN"
 "http://www.w3.org/TR/2001/REC-SVG-20010904/DTD/svg10.dtd">
<svg version="1.0" xmlns="http://www.w3.org/2000/svg"
 width="475.000000pt" height="475.000000pt" viewBox="0 0 475.000000 475.000000"
 preserveAspectRatio="xMidYMid meet">
<metadata>
Created by potrace 1.11, written by Peter Selinger 2001-2013
</metadata>
<g transform="translate(0.000000,475.000000) scale(0.100000,-0.100000)"
fill="#000000" stroke="none">
<path d="M157 4726 c-60 -30 -92 -59 -125 -116 l-27 -45 0 -2190 0 -2190 23
-35 c12 -19 25 -42 28 -50 8 -23 92 -77 139 -89 27 -7 408 -11 1193 -11 l1152
0 1 383 c3 1276 7 1705 13 1732 4 17 9 39 10 50 5 37 48 170 62 193 8 12 12
22 9 22 -8 0 83 146 100 160 8 7 13 15 11 19 -3 4 9 16 25 26 16 11 29 26 29
33 0 6 4 12 9 12 5 0 16 6 23 13 114 109 300 184 508 204 117 11 546 1 673
-16 4 -1 7 -147 7 -326 l0 -325 -22 0 c-13 0 -129 -2 -258 -4 -203 -3 -253 -6
-280 -16 -3 -1 -8 -2 -12 -1 -5 0 -8 -4 -8 -11 0 -6 -3 -9 -6 -5 -4 3 -26 -7
-50 -23 -45 -31 -87 -103 -99 -170 -4 -19 -8 -466 -9 -992 l-1 -958 632 0
c432 0 634 3 638 11 4 5 12 8 18 6 28 -10 147 79 147 110 0 7 4 13 10 13 5 0
9 3 9 8 -1 4 0 9 1 12 1 3 4 14 8 25 4 11 7 1001 7 2200 l0 2180 -23 42 c-26
46 -74 92 -125 120 -30 17 -148 18 -2212 20 l-2180 2 -48 -23z"/>
</g>
</svg>
